<?xml version="1.0" standalone="no"?>
<!DOCTYPE svg PUBLIC "-//W3C//DTD SVG 20010904//EN"
 "http://www.w3.org/TR/2001/REC-SVG-20010904/DTD/svg10.dtd">
<svg version="1.0" xmlns="http://www.w3.org/2000/svg"
 width="140.000000pt" height="140.000000pt" viewBox="0 0 140.000000 140.000000"
 preserveAspectRatio="xMidYMid meet">
<metadata>
Created by potrace 1.10, written by Peter Selinger 2001-2011
</metadata>
<g transform="translate(0.000000,140.000000) scale(0.100000,-0.100000)"
fill="#000000" stroke="none">
<path d="M703 1370 c-136 -28 -174 -101 -172 -330 1 -162 -5 -183 -98 -308
-100 -133 -163 -282 -163 -383 0 -43 -42 -93 -94 -113 -53 -21 -67 -48 -63
-131 1 -33 -2 -70 -6 -82 -5 -14 -4 -23 2 -23 16 0 34 70 28 114 -8 54 1 89
20 82 8 -3 12 -2 9 3 -3 5 1 12 10 15 24 9 31 7 14 -4 -13 -9 -13 -10 0 -10 9
0 23 8 31 18 9 11 27 26 40 35 17 12 23 25 21 47 -3 44 34 60 80 33 32 -18 49
-41 130 -173 40 -64 68 -77 88 -40 8 15 6 28 -9 57 -21 43 -45 66 -113 112
-72 48 -92 82 -91 156 0 51 8 77 38 141 42 88 43 89 50 82 3 -3 -11 -39 -30
-81 -38 -82 -45 -142 -22 -196 13 -31 13 -31 26 43 7 45 27 106 51 154 78 162
113 289 85 312 -21 17 -19 57 4 71 16 11 17 14 3 41 -16 33 -12 99 8 123 7 8
21 15 30 15 25 0 60 -47 60 -80 0 -23 3 -27 24 -23 16 3 26 14 29 32 17 85
106 110 142 40 18 -33 19 -82 4 -110 -8 -16 -7 -23 7 -33 13 -10 15 -21 11
-44 -8 -38 30 -152 97 -294 24 -51 52 -118 62 -148 27 -86 54 -91 54 -11 0 63
-22 125 -65 180 -42 53 -36 71 7 21 47 -55 82 -137 86 -207 3 -47 8 -64 21
-68 30 -9 71 -55 71 -80 0 -31 26 -33 34 -3 12 47 6 146 -14 203 -26 76 -53
120 -149 248 -90 121 -101 152 -101 301 0 112 -19 183 -63 233 -50 57 -136 81
-224 63z m138 -36 c54 -28 73 -88 44 -144 l-15 -28 -40 19 c-43 21 -61 17
-104 -22 -20 -20 -56 -26 -56 -10 0 17 -57 33 -78 22 -22 -12 -32 1 -32 41 0
107 167 180 281 122z m103 -166 c3 -18 8 -84 10 -146 3 -80 9 -118 19 -130 8
-9 12 -23 10 -29 -3 -7 1 -13 8 -13 7 0 10 -3 6 -6 -3 -4 4 -25 17 -48 37 -67
37 -72 4 -74 -25 -2 -31 3 -45 35 -9 21 -17 40 -18 43 0 3 -9 29 -19 59 -11
33 -19 89 -21 145 -1 50 -9 106 -16 124 -12 28 -12 34 1 42 8 5 11 10 5 10
-11 0 15 20 27 20 4 0 9 -15 12 -32z m172 -455 c74 -106 117 -206 112 -262 -3
-31 -7 -36 -28 -36 -24 0 -25 4 -32 75 -7 82 -15 104 -82 229 -25 47 -46 86
-46 88 0 12 17 -8 76 -94z m-674 -25 c-60 -92 -91 -166 -94 -224 -2 -29 -6
-50 -10 -47 -5 2 -8 0 -8 -6 0 -5 5 -11 12 -13 6 -2 8 -9 4 -16 -5 -9 -12 -9
-26 0 -16 10 -18 20 -13 53 3 22 10 45 14 51 5 6 6 14 3 17 -9 9 62 144 108
205 54 72 61 58 10 -20z"/>
<path d="M775 1087 c-23 -32 -18 -55 14 -72 29 -15 30 -14 36 15 13 59 -21 98
-50 57z"/>
<path d="M594 1076 c-8 -20 -1 -59 11 -63 23 -7 37 15 30 46 -7 32 -31 42 -41
17z"/>
<path d="M609 910 c34 -31 44 -34 96 -30 27 2 129 49 122 56 -2 2 -25 -8 -52
-21 -63 -32 -111 -32 -155 0 -46 34 -52 31 -11 -5z"/>
<path d="M790 869 c-80 -42 -103 -44 -150 -10 -48 34 -55 33 -18 -3 29 -27 46
-36 73 -36 36 0 143 49 165 75 17 20 16 20 -70 -26z"/>
<path d="M660 690 c-52 -10 -103 -34 -120 -56 -14 -18 -14 -18 6 -2 77 66 251
64 346 -3 30 -21 38 -23 38 -9 0 6 -7 10 -15 10 -8 0 -15 3 -15 8 0 14 -65 41
-124 52 -65 11 -65 11 -116 0z"/>
<path d="M955 511 c3 -5 -2 -17 -11 -25 -14 -15 -14 -16 5 -16 15 0 21 -8 24
-32 l4 -33 1 37 c1 20 -2 39 -8 43 -5 3 -7 12 -3 20 3 8 0 15 -7 15 -6 0 -9
-4 -5 -9z"/>
<path d="M763 473 c32 -2 81 -2 110 0 29 2 3 3 -58 3 -60 0 -84 -1 -52 -3z"/>
<path d="M653 430 c5 -19 0 -20 -64 -20 -39 0 -69 -4 -69 -10 0 -5 16 -10 35
-10 19 0 35 -2 35 -5 0 -3 -16 -27 -35 -54 -19 -26 -35 -51 -35 -55 0 -3 25
-6 55 -6 42 0 55 3 55 15 0 10 -11 15 -35 15 l-35 0 32 45 c40 56 64 57 60 2
-4 -40 18 -77 45 -77 18 0 17 19 -2 26 -10 4 -15 20 -15 50 0 32 4 44 15 44 8
0 15 5 15 10 0 6 -9 10 -19 10 -14 0 -18 5 -14 20 4 14 0 20 -12 20 -12 0 -16
-6 -12 -20z"/>
<path d="M763 409 c-31 -11 -46 -45 -38 -85 9 -50 75 -75 105 -39 17 21 3 39
-16 20 -20 -20 -39 -19 -60 3 -17 16 -15 17 34 20 50 3 52 4 52 31 0 41 -37
65 -77 50z m41 -25 c33 -13 17 -34 -24 -34 -38 0 -40 2 -30 20 11 21 27 25 54
14z"/>
<path d="M850 405 c0 -3 9 -19 21 -34 18 -25 19 -31 8 -50 -8 -11 -17 -21 -21
-21 -5 0 -8 -7 -8 -15 0 -23 16 -18 34 10 21 31 30 31 44 0 13 -28 32 -34 32
-10 0 8 -4 15 -10 15 -5 0 -10 6 -10 14 0 8 -5 16 -12 18 -8 3 -4 15 11 37 27
37 19 58 -9 24 -21 -26 -40 -30 -40 -9 0 8 -7 17 -16 20 -19 7 -24 8 -24 1z"/>
<path d="M1031 386 c-18 -22 -9 -101 14 -126 25 -28 73 -25 118 5 49 34 49 65
2 101 -44 33 -115 44 -134 20z m78 -12 c47 -19 63 -51 35 -71 -21 -16 -44 -16
-78 -3 -20 7 -26 17 -26 38 0 23 15 52 27 52 1 0 21 -7 42 -16z"/>
<path d="M982 318 c-7 -7 -12 -22 -12 -33 0 -12 -3 -25 -7 -29 -5 -4 -13 -46
-19 -92 -7 -46 -17 -91 -25 -100 -16 -19 -65 -45 -104 -55 -23 -5 -16 -7 33
-8 46 -1 62 3 62 12 0 8 9 24 20 37 11 13 20 26 20 29 1 3 5 26 11 51 5 25 12
70 15 100 4 30 11 63 16 73 12 23 6 31 -10 15z"/>
<path d="M1250 281 c0 -6 4 -12 9 -15 5 -3 16 -29 26 -57 9 -29 27 -67 41 -84
36 -47 31 -66 -24 -97 -34 -20 -41 -28 -26 -28 31 0 89 42 92 68 2 13 -10 44
-27 70 -16 26 -33 61 -36 77 -4 17 -14 40 -21 53 -15 22 -34 30 -34 13z"/>
<path d="M530 75 c0 -3 16 -21 35 -40 28 -28 42 -35 72 -34 37 1 38 1 8 8 -37
9 -81 37 -89 57 -5 13 -26 20 -26 9z"/>
</g>
</svg>
